<?xml version="1.0" standalone="no"?>
<!DOCTYPE svg PUBLIC "-//W3C//DTD SVG 20010904//EN"
 "http://www.w3.org/TR/2001/REC-SVG-20010904/DTD/svg10.dtd">
<svg version="1.0" xmlns="http://www.w3.org/2000/svg"
 width="417.000000pt" height="417.000000pt" viewBox="0 0 417.000000 417.000000"
 preserveAspectRatio="xMidYMid meet">
<metadata>
Created by potrace 1.11, written by Peter Selinger 2001-2013
</metadata>
<g transform="translate(0.000000,417.000000) scale(0.100000,-0.100000)"
fill="#000000" stroke="none">
<path d="M1875 4159 c-373 -38 -737 -181 -1042 -407 -113 -85 -330 -302 -415
-415 -422 -569 -533 -1316 -291 -1969 l26 -69 107 208 c250 488 662 1159 1017
1656 86 119 118 147 171 147 63 0 172 -112 212 -217 45 -118 27 -258 -70 -540
-67 -195 -166 -514 -230 -743 -28 -102 -58 -207 -65 -233 -8 -26 -10 -45 -6
-42 5 2 37 46 72 97 110 161 257 352 530 693 313 389 434 550 588 780 140 209
145 215 188 215 60 0 153 -105 183 -207 7 -24 15 -43 17 -43 1 0 40 27 84 60
229 170 406 236 612 228 85 -3 112 -8 155 -29 29 -14 52 -23 52 -19 0 16 -164
202 -252 286 -438 417 -1044 625 -1643 563z"/>
<path d="M3543 3110 c-188 -67 -447 -268 -649 -503 -250 -291 -389 -584 -444
-937 -14 -95 -12 -304 5 -383 28 -135 104 -249 190 -288 51 -24 135 -24 201
-1 180 63 399 284 569 577 36 62 74 120 85 130 24 22 72 24 96 4 56 -46 72
-197 33 -312 -62 -186 -246 -392 -440 -492 -237 -123 -537 -130 -748 -20 -124
66 -245 210 -302 362 -13 35 -26 63 -29 63 -6 0 -115 -264 -171 -414 -53 -144
-54 -146 -89 -146 -42 0 -113 75 -136 142 -23 70 -22 199 4 309 35 145 130
375 336 807 58 123 106 226 106 230 0 8 -69 -82 -234 -303 -301 -403 -552
-776 -715 -1063 -29 -50 -62 -97 -73 -103 -33 -18 -67 -1 -133 62 -106 102
-143 221 -124 402 15 146 115 554 230 940 28 93 48 171 46 173 -5 5 -220 -332
-375 -587 -129 -214 -280 -486 -371 -667 l-72 -143 23 -37 c46 -75 178 -230
279 -327 738 -711 1870 -781 2696 -167 113 85 330 302 415 415 412 554 524
1243 311 1911 l-26 81 -14 -70 c-8 -39 -42 -129 -77 -205 -35 -74 -78 -175
-96 -225 -35 -96 -52 -122 -88 -136 -52 -20 -154 55 -191 140 -48 112 -36 200
57 443 86 222 99 299 56 342 -21 21 -77 20 -141 -4z"/>
</g>
</svg>
